<?xml version="1.0" encoding="UTF-8"?>
<svg version="1.1" xmlns="http://www.w3.org/2000/svg" width="336" height="336">
<path d="M0 0 C0.73947372 -0.00696899 1.47894745 -0.01393799 2.24082947 -0.02111816 C4.61113244 -0.03840319 6.98119915 -0.04483662 9.3515625 -0.046875 C10.56409195 -0.04838562 10.56409195 -0.04838562 11.80111694 -0.04992676 C23.47175712 -0.04007139 34.60037319 0.38627897 45.9765625 3.203125 C47.24113281 3.49316406 48.50570312 3.78320312 49.80859375 4.08203125 C93.86968505 14.92714023 131.06393669 42.86163482 154.83154297 81.28125 C168.57975792 104.11565546 178.00875398 131.40117253 178.1796875 158.2265625 C178.18665649 158.96603622 178.19362549 159.70550995 178.20080566 160.46739197 C178.21809069 162.83769494 178.22452412 165.20776165 178.2265625 167.578125 C178.22756958 168.38647797 178.22857666 169.19483093 178.22961426 170.02767944 C178.21975889 181.69831962 177.79340853 192.82693569 174.9765625 204.203125 C174.68652344 205.46769531 174.39648438 206.73226562 174.09765625 208.03515625 C163.25254727 252.09624755 135.31805268 289.29049919 96.8984375 313.05810547 C74.06403204 326.80632042 46.77851497 336.23531648 19.953125 336.40625 C19.21365128 336.41321899 18.47417755 336.42018799 17.71229553 336.42736816 C15.34199256 336.44465319 12.97192585 336.45108662 10.6015625 336.453125 C9.38903305 336.45463562 9.38903305 336.45463562 8.15200806 336.45617676 C-3.51863212 336.44632139 -14.64724819 336.01997103 -26.0234375 333.203125 C-27.28800781 332.91308594 -28.55257812 332.62304688 -29.85546875 332.32421875 C-73.91656005 321.47910977 -111.11081169 293.54461518 -134.87841797 255.125 C-148.62663292 232.29059454 -158.05562898 205.00507747 -158.2265625 178.1796875 C-158.23353149 177.44021378 -158.24050049 176.70074005 -158.24768066 175.93885803 C-158.26496569 173.56855506 -158.27139912 171.19848835 -158.2734375 168.828125 C-158.27444458 168.01977203 -158.27545166 167.21141907 -158.27648926 166.37857056 C-158.26663389 154.70793038 -157.84028353 143.57931431 -155.0234375 132.203125 C-154.73339844 130.93855469 -154.44335938 129.67398438 -154.14453125 128.37109375 C-143.29942227 84.31000245 -115.36492768 47.11575081 -76.9453125 23.34814453 C-54.11090704 9.59992958 -26.82538997 0.17093352 0 0 Z " fill="#0F1316" transform="translate(158.0234375,-0.203125)"/>
<path d="M0 0 C7.63113081 1.664974 11.42839318 8.09311415 16.07421875 13.91015625 C18.96220316 17.38051107 22.09993766 20.49817192 25.328125 23.6484375 C27.85398077 26.16493825 30.1712112 28.81532398 32.4921875 31.51953125 C34.924737 34.30865929 37.42932141 37.02914208 39.9375 39.75 C43.5844111 43.7110668 47.18079612 47.70791923 50.7109375 51.7734375 C55.15230819 56.85790259 59.67875319 61.86959364 64.28125 66.80859375 C77.63755874 81.15202033 77.63755874 81.15202033 78 86.8125 C76.88231587 94.63628889 70.91381425 99.63596286 65.625 105.125 C60.98194282 109.97296205 56.41613266 114.85369783 52.02075195 119.92822266 C49.86704387 122.4063984 47.65468165 124.82860426 45.4375 127.25 C41.98174587 131.03934126 38.5722711 134.86083698 35.20703125 138.73046875 C31.66171912 142.77666383 28.04227095 146.75683622 24.4375 150.75 C22.93721321 152.41640851 21.43721128 154.08307353 19.9375 155.75 C18.83341797 156.97396484 18.83341797 156.97396484 17.70703125 158.22265625 C16.13449754 159.97382545 14.56991026 161.73215071 13.01171875 163.49609375 C12.22410156 164.38425781 11.43648437 165.27242187 10.625 166.1875 C9.91730469 166.99058594 9.20960937 167.79367188 8.48046875 168.62109375 C3.75660214 173.54366985 3.75660214 173.54366985 -0.484375 174.20703125 C-4.44529741 173.61892475 -5.94786036 172.19229917 -8.8125 169.4375 C-10.08867188 168.23673828 -10.08867188 168.23673828 -11.390625 167.01171875 C-14.17574799 164.11138384 -15.47440944 162.44738361 -15.984375 158.41015625 C-15.45151973 153.78714342 -14.08556526 152.43745039 -10.8125 149.1875 C-9.79055844 148.14297777 -8.77111532 147.09600652 -7.75390625 146.046875 C-7.2242627 145.50740234 -6.69461914 144.96792969 -6.14892578 144.41210938 C-3.55540757 141.69486222 -1.16287697 138.81459396 1.25 135.9375 C6.18589598 130.10727268 11.33318415 124.50465013 16.56860352 118.94311523 C20.03412103 115.26073058 23.43161834 111.54037895 26.73046875 107.70703125 C28.94817448 105.16453566 31.22469498 102.67853765 33.5 100.1875 C37.22532178 96.10386482 40.87137881 91.97303826 44.4375 87.75 C43.10893806 84.82356763 41.64185823 82.6799237 39.42578125 80.359375 C38.83643799 79.73651611 38.24709473 79.11365723 37.63989258 78.47192383 C37.01622803 77.82118896 36.39256348 77.1704541 35.75 76.5 C34.46785621 75.14537666 33.18659479 73.78991757 31.90625 72.43359375 C31.2978125 71.79019043 30.689375 71.14678711 30.0625 70.48388672 C27.70738623 67.97096335 25.45306416 65.37947836 23.20703125 62.76953125 C20.82865618 60.05513851 18.38242818 57.40425983 15.9375 54.75 C12.35738027 50.86253264 8.83532116 46.9352811 5.37890625 42.9375 C3.29984697 40.59489799 1.16924087 38.30707131 -0.9699707 36.01953125 C-15.06339212 20.91280083 -15.06339212 20.91280083 -16.3125 15.5 C-15.28012472 11.71462396 -13.51419561 10.32488341 -10.5625 7.75 C-10.01980469 7.13382812 -9.47710937 6.51765625 -8.91796875 5.8828125 C-5.98697671 2.58792754 -4.41030675 0.92848563 0 0 Z " fill="#3D4145" transform="translate(79.5625,75.25)"/>
<path d="M0 0 C1.20462891 -0.02126953 1.20462891 -0.02126953 2.43359375 -0.04296875 C4.5625 0.1875 4.5625 0.1875 6.5625 2.1875 C6.81697559 5.01769924 6.81697559 5.01769924 6.82319641 8.70982361 C6.82893473 9.72601637 6.82893473 9.72601637 6.83478898 10.76273829 C6.84514714 13.04364491 6.84112159 15.32430112 6.8371582 17.60522461 C6.84150314 19.23610163 6.84668555 20.8669766 6.85264587 22.49784851 C6.86607086 26.93582939 6.86661066 31.37372528 6.86408257 35.81172252 C6.8630152 39.51220088 6.86789023 43.21266188 6.872688 46.91313654 C6.88379533 55.640916 6.88421374 64.36865243 6.87817383 73.09643555 C6.87213214 82.11009326 6.88444718 91.12359496 6.9057439 100.13722605 C6.92333833 107.86719573 6.92936467 115.59711565 6.92610615 123.32710463 C6.92428966 127.94775192 6.92696575 132.56828793 6.94082069 137.18891716 C6.95335938 141.53340206 6.95149272 145.87764312 6.93840981 150.2221241 C6.93603578 151.81891079 6.93880813 153.41571442 6.94703293 155.01248169 C6.95743292 157.18800505 6.94945525 159.36269992 6.9367218 161.53819275 C6.93688954 162.75697082 6.93705729 163.97574888 6.93723011 165.23145962 C6.5625 168.1875 6.5625 168.1875 5.24028301 170.06206608 C2.17410262 172.11881799 0.14216493 171.80876416 -3.4375 171.1875 C-6.33388586 169.03346514 -8.59097243 166.41624547 -10.9375 163.6875 C-11.56269531 162.99140625 -12.18789062 162.2953125 -12.83203125 161.578125 C-14.72165074 159.46550694 -16.5824149 157.33046845 -18.4375 155.1875 C-22.51118835 150.5122258 -26.607931 145.87060634 -30.8125 141.3125 C-37.54004139 133.99995501 -44.23693069 126.65834798 -50.7265625 119.1328125 C-51.94385955 117.74876243 -53.19233205 116.39186621 -54.4609375 115.0546875 C-55.43933594 114.00667969 -55.43933594 114.00667969 -56.4375 112.9375 C-57.035625 112.31359375 -57.63375 111.6896875 -58.25 111.046875 C-59.4375 109.1875 -59.4375 109.1875 -59.28515625 107.15625 C-57.90450702 103.94958083 -55.74614256 101.79212237 -53.4375 99.1875 C-50.42875902 100.52553458 -48.45364357 101.96334376 -46.23046875 104.3828125 C-45.64740967 105.01227783 -45.06435059 105.64174316 -44.46362305 106.2902832 C-43.55350464 107.29128052 -43.55350464 107.29128052 -42.625 108.3125 C-41.99698486 108.99465576 -41.36896973 109.67681152 -40.72192383 110.37963867 C-37.11805405 114.30580956 -33.55207808 118.26225945 -30.07421875 122.30078125 C-28.05876228 124.62408787 -25.99901538 126.90498465 -23.9375 129.1875 C-18.99334737 134.66887804 -14.12785793 140.21227293 -9.32495117 145.81762695 C-8.78432541 146.44852737 -8.24369965 147.0794278 -7.68669128 147.72944641 C-7.27445816 148.2106041 -6.86222504 148.69176178 -6.4375 149.1875 C-6.43326806 148.42566941 -6.42903612 147.66383883 -6.42467594 146.87892246 C-6.3215131 128.36887943 -6.21289721 109.85887581 -6.09816074 91.34890079 C-6.04280823 82.39773445 -5.98932296 73.44656412 -5.94018555 64.49536133 C-5.89736849 56.69637109 -5.85109686 48.89741044 -5.80062145 41.09846586 C-5.77400047 36.96639552 -5.74914698 32.83433113 -5.72842598 28.70222664 C-5.70889079 24.81745598 -5.68475658 20.93274174 -5.65700912 17.04802132 C-5.6476221 15.61811341 -5.6399528 14.18819311 -5.63408089 12.75826645 C-5.62584775 10.81428863 -5.61098212 8.87034219 -5.59571838 6.92640686 C-5.58926583 5.83592576 -5.58281328 4.74544466 -5.5761652 3.62191868 C-5.34086806 -0.50897893 -3.71113265 0.02968906 0 0 Z " fill="#C5C4C0" transform="translate(217.4375,76.8125)"/>
<path d="M0 0 C2.84765625 0.40625 2.84765625 0.40625 4.84765625 2.40625 C5.4706678 5.86742527 5.59097797 8.28429877 3.59765625 11.29296875 C1.74802023 13.40378023 -0.18603918 15.40373355 -2.15234375 17.40625 C-3.61723519 19.02534054 -5.07532767 20.65060276 -6.52734375 22.28125 C-8.81453315 24.82041789 -11.10581232 27.35529084 -13.41015625 29.87890625 C-17.18258572 34.02594979 -20.83654119 38.2162407 -24.33984375 42.59375 C-30.80239585 50.59173115 -37.88241586 58.13632211 -45.15234375 65.40625 C-46.67799699 49.99715225 -46.67799699 49.99715225 -43.171875 44.04296875 C-40.62243368 41.31610792 -37.96872184 38.8540139 -35.15234375 36.40625 C-33.93857311 35.07557932 -32.74796998 33.72312205 -31.58984375 32.34375 C-28.97532433 29.33551472 -26.32282719 26.36494751 -23.65234375 23.40625 C-20.96250944 20.42562279 -18.28924011 17.43379767 -15.65234375 14.40625 C-15.09675781 13.7771875 -14.54117187 13.148125 -13.96875 12.5 C-12.5963539 10.91805525 -11.25523208 9.30890427 -9.9296875 7.6875 C-9.15753906 6.7696875 -8.38539063 5.851875 -7.58984375 4.90625 C-6.53603516 3.62234375 -6.53603516 3.62234375 -5.4609375 2.3125 C-3.15234375 0.40625 -3.15234375 0.40625 0 0 Z " fill="#E99D33" transform="translate(279.15234375,168.59375)"/>
<path d="M0 0 C2.4375 1.5 2.4375 1.5 4 4 C4.57000692 8.48880452 4.79772369 10.7420511 2.375 14.5625 C1.59125 15.366875 0.8075 16.17125 0 17 C-0.98432762 18.16231563 -1.96316882 19.329292 -2.9375 20.5 C-5.50073432 23.47335182 -8.18869421 26.25726264 -11 29 C-12.27216335 30.26950192 -13.54294196 31.54039265 -14.8125 32.8125 C-15.875 33.875 -16.9375 34.9375 -18 36 C-18.66 35.67 -19.32 35.34 -20 35 C-19.21496094 34.154375 -18.42992187 33.30875 -17.62109375 32.4375 C-5.38679905 21.23152563 -5.38679905 21.23152563 1.1875 7.375 C1.38528649 4.16302154 1.38528649 4.16302154 0 3 C-2.75138473 2.34436774 -2.75138473 2.34436774 -6 3 C-8.62589613 4.95183624 -10.67703104 7.34629197 -12.8125 9.8125 C-13.42488525 10.49376953 -14.03727051 11.17503906 -14.66821289 11.87695312 C-18.94350597 16.67041241 -23.02582604 21.60773762 -27.03515625 26.625 C-29.81104996 29.98035462 -32.85178757 32.9985954 -36 36 C-37.0023068 36.99768787 -38.00298952 37.99701939 -39 39 C-39.495 37.515 -39.495 37.515 -40 36 C-35.375 31.125 -35.375 31.125 -32 30 C-31.6278958 28.67696283 -31.29369827 27.34262065 -31 26 C-30.34 25.67 -29.68 25.34 -29 25 C-28.67 24.01 -28.34 23.02 -28 22 C-26.35360035 20.64172029 -24.68704193 19.30745749 -23 18 C-22.67 17.34 -22.34 16.68 -22 16 C-21.34 16 -20.68 16 -20 16 C-19.67 14.68 -19.34 13.36 -19 12 C-18.34 12 -17.68 12 -17 12 C-17 11.34 -17 10.68 -17 10 C-16.34 10 -15.68 10 -15 10 C-15 9.34 -15 8.68 -15 8 C-14.0409375 7.2884375 -14.0409375 7.2884375 -13.0625 6.5625 C-10.71627037 5.0908635 -10.71627037 5.0908635 -10 2 C-6.2794164 -0.48038907 -4.40203429 -0.46337203 0 0 Z " fill="#301B06" transform="translate(282,167)"/>
<path d="M0 0 C0.33 0.99 0.66 1.98 1 3 C0.3503125 3.5878125 0.3503125 3.5878125 -0.3125 4.1875 C-2.13175226 5.99843418 -2.13175226 5.99843418 -3.4375 8.5625 C-5 11 -5 11 -7.0625 12 C-9.24001766 12.8467899 -9.24001766 12.8467899 -9.84375 15.3125 C-11.21260183 18.49415559 -12.7683693 19.82612672 -15.4375 22 C-18.80946156 24.75534256 -20.82251592 27.24289597 -23 31 C-25.1875 32.3125 -25.1875 32.3125 -27 33 C-28 32 -28 32 -28.11352539 30.14233398 C-28.10828857 29.35157471 -28.10305176 28.56081543 -28.09765625 27.74609375 C-28.09443359 26.89208984 -28.09121094 26.03808594 -28.08789062 25.15820312 C-28.07951172 24.26037109 -28.07113281 23.36253906 -28.0625 22.4375 C-28.05798828 21.53580078 -28.05347656 20.63410156 -28.04882812 19.70507812 C-28.03700225 17.46998686 -28.0205222 15.23502563 -28 13 C-27.67 13 -27.34 13 -27 13 C-26.67 18.28 -26.34 23.56 -26 29 C-21.08284691 24.18319698 -16.47384418 19.22776977 -12 14 C-10.96365558 12.79287095 -9.92718662 11.5858488 -8.890625 10.37890625 C-5.92366847 6.92218582 -2.96101509 3.46181074 0 0 Z " fill="#2C1906" transform="translate(261,203)"/>
<path d="M0 0 C0.66 0.33 1.32 0.66 2 1 C0.57621053 4.36397926 -1.12610426 6.19643552 -3.9375 8.5 C-9.06305253 12.60561668 -9.06305253 12.60561668 -11.3984375 18.5078125 C-11.39070312 19.37148437 -11.38296875 20.23515625 -11.375 21.125 C-11.38273438 21.99382812 -11.39046875 22.86265625 -11.3984375 23.7578125 C-11.26695312 24.49773437 -11.13546875 25.23765625 -11 26 C-10.01 26.66 -9.02 27.32 -8 28 C-9.64169528 30.02054804 -11.30911778 32.02043058 -13 34 C-13.33 34 -13.66 34 -14 34 C-15.61823561 17.65582032 -15.61823561 17.65582032 -11.9140625 12.53125 C-9.39406994 9.84128727 -6.76881526 7.42900611 -4 5 C-2.63338106 3.36051587 -1.28880062 1.70133727 0 0 Z " fill="#DAA153" transform="translate(248,200)"/>
<path d="M0 0 C2 2 2 2 2.375 5.375 C2 9 2 9 0 11.4375 C-0.99 12.2109375 -0.99 12.2109375 -2 13 C-1.855625 12.29875 -1.71125 11.5975 -1.5625 10.875 C-0.98521625 7.92443859 -0.48304859 4.96729849 0 2 C-3.63473078 3.27624119 -3.63473078 3.27624119 -6.625 5.625 C-7.07875 6.07875 -7.5325 6.5325 -8 7 C-8.99 7 -9.98 7 -11 7 C-8.43839186 1.28564337 -6.52749383 -0.69441424 0 0 Z " fill="#D99E4D" transform="translate(282,169)"/>
<path d="M0 0 C0.66 0.33 1.32 0.66 2 1 C0.55218207 4.44428265 -1.27694609 6.36130962 -4.125 8.75 C-5.21167969 9.67039063 -5.21167969 9.67039063 -6.3203125 10.609375 C-6.87460938 11.06828125 -7.42890625 11.5271875 -8 12 C-8.66 11.67 -9.32 11.34 -10 11 C-6.7 7.37 -3.4 3.74 0 0 Z " fill="#CE9549" transform="translate(248,200)"/>
<path d="M0 0 C0.99 0.33 1.98 0.66 3 1 C0.36 3.97 -2.28 6.94 -5 10 C-5.33 8.68 -5.66 7.36 -6 6 C-3.625 3.3125 -3.625 3.3125 -1 1 C-0.67 0.67 -0.34 0.34 0 0 Z " fill="#2C1706" transform="translate(240,206)"/>
<path d="M0 0 C6.27586207 -0.48275862 6.27586207 -0.48275862 9.4375 1.625 C11.39644605 4.602598 11.31785906 6.50355037 11 10 C10.7525 9.4225 10.505 8.845 10.25 8.25 C8.78497722 5.61295899 7.32497923 3.92641136 5 2 C2.35815459 1.20318682 2.35815459 1.20318682 0 1 C0 0.67 0 0.34 0 0 Z " fill="#211203" transform="translate(275,167)"/>
<path d="M0 0 C1.125 1.75 1.125 1.75 2 4 C0.87204757 7.88516948 -2.13075978 10.28177243 -5 13 C-5.66 12.67 -6.32 12.34 -7 12 C-6.57847656 11.55269531 -6.15695312 11.10539063 -5.72265625 10.64453125 C-1.4622021 6.01600234 -1.4622021 6.01600234 0 0 Z " fill="#361F08" transform="translate(284,173)"/>
<path d="M0 0 C0.66 0 1.32 0 2 0 C1.45912682 3.78611227 -0.11722332 5.55400767 -3 8 C-3.66 8 -4.32 8 -5 8 C-5 7.34 -5 6.68 -5 6 C-4.34 6 -3.68 6 -3 6 C-2.67 4.68 -2.34 3.36 -2 2 C-1.34 2 -0.68 2 0 2 C0 1.34 0 0.68 0 0 Z " fill="#1C0D03" transform="translate(265,177)"/>
<path d="M0 0 C0.66 0 1.32 0 2 0 C0.44499019 3.81684226 -2.03595495 6.19195732 -5 9 C-5.33 8.01 -5.66 7.02 -6 6 C-4 4 -2 2 0 0 Z " fill="#291404" transform="translate(248,197)"/>
<path d="M0 0 C0.66 0.33 1.32 0.66 2 1 C0.02 3.31 -1.96 5.62 -4 8 C-4.66 7.67 -5.32 7.34 -6 7 C-6 6.34 -6 5.68 -6 5 C-5.34 5 -4.68 5 -4 5 C-4 4.34 -4 3.68 -4 3 C-3.34 3 -2.68 3 -2 3 C-2 2.34 -2 1.68 -2 1 C-1.34 0.67 -0.68 0.34 0 0 Z " fill="#CF9446" transform="translate(278,182)"/>
<path d="M0 0 C0.6875 1.8125 0.6875 1.8125 1 4 C-0.4375 5.75 -0.4375 5.75 -2 7 C-2.66 6.67 -3.32 6.34 -4 6 C-2.84826645 3.53199953 -1.95216435 1.95216435 0 0 Z " fill="#E4A246" transform="translate(253,195)"/>
<path d="M0 0 C0 0.99 0 1.98 0 3 C-2.5 5.1875 -2.5 5.1875 -5 7 C-5.33 6.34 -5.66 5.68 -6 5 C-3.9927092 1.9890638 -3.16115776 1.36983503 0 0 Z " fill="#1D1107" transform="translate(280,184)"/>
</svg>
